<svg width="171" height="212" viewBox="0 0 171 212" fill="#8f34e5" xmlns="http://www.w3.org/2000/svg">
<mask id="path-1-inside-1_16_12" fill="white">
<path fill-rule="evenodd" clip-rule="evenodd" d="M147.945 82.395L147.894 82.4772L147.895 82.4774L109.687 144.793L109.686 144.793C97.1324 165.168 70.447 171.545 50.0341 159.029C29.5939 146.496 23.1834 119.767 35.716 99.3263C35.742 99.284 35.768 99.2417 35.7941 99.1994L73.846 37.138L73.9239 37.0104C86.4565 16.5701 113.186 10.1597 133.627 22.6923C154.067 35.2249 160.477 61.9547 147.945 82.395Z"/>
</mask>
<path d="M147.894 82.4772L126.596 69.386L113.49 90.708L134.827 103.79L147.894 82.4772ZM147.945 82.395L169.243 95.4862L169.25 95.4744L169.258 95.4626L147.945 82.395ZM147.895 82.4774L169.207 95.545L182.275 74.2321L160.962 61.1645L147.895 82.4774ZM109.687 144.793L96.619 166.106L117.932 179.174L130.999 157.861L109.687 144.793ZM109.686 144.793L122.754 123.48L101.487 110.441L88.4019 131.679L109.686 144.793ZM35.7941 99.1994L57.0629 112.339L57.085 112.303L57.107 112.267L35.7941 99.1994ZM73.846 37.138L95.1589 50.2056L95.1699 50.1876L95.1809 50.1696L73.846 37.138ZM73.9239 37.0104L52.6111 23.9428L52.6001 23.9608L52.5891 23.9787L73.9239 37.0104ZM169.193 95.5684L169.243 95.4862L126.646 69.3038L126.596 69.386L169.193 95.5684ZM160.962 61.1645L160.962 61.1643L134.827 103.79L134.827 103.79L160.962 61.1645ZM130.999 157.861L169.207 95.545L126.582 69.4098L88.3737 131.726L130.999 157.861ZM96.6187 166.106L96.619 166.106L122.754 123.481L122.754 123.48L96.6187 166.106ZM88.4019 131.679C83.078 140.32 71.7594 143.024 63.1017 137.716L36.9665 180.342C69.1346 200.065 111.187 190.017 130.971 157.907L88.4019 131.679ZM63.1017 137.716C54.4322 132.401 51.7133 121.063 57.0289 112.394L14.4032 86.2587C-5.34649 118.47 4.75548 160.592 36.9665 180.342L63.1017 137.716ZM57.0289 112.394C57.0402 112.375 57.0516 112.357 57.0629 112.339L14.5253 86.0603C14.4845 86.1263 14.4438 86.1925 14.4032 86.2587L57.0289 112.394ZM52.5332 24.0704L14.4813 86.1318L57.107 112.267L95.1589 50.2056L52.5332 24.0704ZM52.5891 23.9787L52.5112 24.1063L95.1809 50.1696L95.2588 50.0421L52.5891 23.9787ZM146.694 1.37943C114.483 -18.3702 72.3607 -8.26824 52.6111 23.9428L95.2368 50.078C100.552 41.4085 111.889 38.6896 120.559 44.0051L146.694 1.37943ZM169.258 95.4626C189.007 63.2515 178.905 21.1291 146.694 1.37943L120.559 44.0051C129.229 49.3207 131.947 60.6579 126.632 69.3274L169.258 95.4626Z" fill="#EB3CA5" mask="url(#path-1-inside-1_16_12)"/>
<mask id="path-3-inside-2_16_12" fill="white">
<path fill-rule="evenodd" clip-rule="evenodd" d="M86.8265 95.0268V95.1235V168.123V168.22H86.8264C86.7742 192.152 67.3575 211.537 43.4132 211.537C19.469 211.537 0.0522629 192.152 0.000105327 168.22H0V168.123V95.1235H0.000105376L0 95.0268C0 71.0503 19.4368 51.6135 43.4132 51.6135C67.3897 51.6135 86.8265 71.0503 86.8265 95.0268Z"/>
</mask>
<path d="M86.8265 168.22V193.22H111.826V168.22H86.8265ZM86.8264 168.22V143.22H61.8808L61.8265 168.166L86.8264 168.22ZM0.000105327 168.22L25 168.166L24.9457 143.22H0.000105327V168.22ZM0 168.22H-25V193.22H0V168.22ZM0 95.1235V70.1235H-25V95.1235H0ZM0.000105376 95.1235V120.123H25.0274L25.0001 95.0962L0.000105376 95.1235ZM0 95.0268H-25V95.0404L-25 95.054L0 95.0268ZM111.826 95.1235V95.0268H61.8265V95.1235H111.826ZM111.826 168.123V95.1235H61.8265V168.123H111.826ZM111.826 168.22V168.123H61.8265V168.22H111.826ZM86.8264 193.22H86.8265V143.22H86.8264V193.22ZM61.8265 168.166C61.8043 178.315 53.5686 186.537 43.4132 186.537V236.537C81.1464 236.537 111.744 205.989 111.826 168.275L61.8265 168.166ZM43.4132 186.537C33.2579 186.537 25.0222 178.315 25 168.166L-24.9998 168.275C-24.9176 205.989 5.68013 236.537 43.4132 236.537V186.537ZM0 193.22H0.000105327V143.22H0V193.22ZM-25 168.123V168.22H25V168.123H-25ZM-25 95.1235V168.123H25V95.1235H-25ZM0.000105376 70.1235H0V120.123H0.000105376V70.1235ZM-25 95.054L-24.9999 95.1507L25.0001 95.0962L25 94.9995L-25 95.054ZM43.4132 26.6135C5.62965 26.6135 -25 57.2432 -25 95.0268H25C25 84.8574 33.2439 76.6135 43.4132 76.6135V26.6135ZM111.826 95.0268C111.826 57.2432 81.1968 26.6135 43.4132 26.6135V76.6135C53.5826 76.6135 61.8265 84.8574 61.8265 95.0268H111.826Z" fill="#EB3CA5" mask="url(#path-3-inside-2_16_12)"/>
</svg>
